# xmcd CD database file
#
# Track frame offsets:
#	151
#	16285
#	30919
#	44992
#	60299
#	74980
#	89347
#	102589
#	116403
#	128384
#	141214
#	154166
#	173048
#	186419
#	200533
#	212197
#	225007
#	238747
#	250614
#	262977
#	276693
#	288528
#	302800
#	317381
#
# Disc length: 4408 seconds
#
# Revision: 0
# Processed by: cddbd v1.5.2PL0 Copyright (c) Steve Scherf et al.
# Submitted via: CDex 1.70beta2
#
DISCID=5d113618
DTITLE=Bob Crosby, The Bob Cats and Orchestra - Bob Crosby Swing Legends
DYEAR=2001
DGENRE=Jazz
TTITLE0=South Rampart Street Parade
TTITLE1=Dixieland Shuffle
TTITLE2=Savoy Blues
TTITLE3=Gin Mill Blues
TTITLE4=Squeeze Me
TTITLE5=Stumbling
TTITLE6=Who's Sorry Now
TTITLE7=Coquette
TTITLE8=Fidgety Feet
TTITLE9=You're Driving Me Crazy
TTITLE10=Can't We Be Friends
TTITLE11=Dogtown Blues
TTITLE12=Wolverine Blues
TTITLE13=At The Jazz Band Ball
TTITLE14=March of The Bob Cats
TTITLE15=Palesteena
TTITLE16=Slow Mood
TTITLE17=Big Foot Stomp
TTITLE18=The Big Crash From China
TTITLE19=Five Point Blues
TTITLE20=The Big Noise From Winnetka
TTITLE21=Swingin' At The Sugar Bowl
TTITLE22=Honky Tonk Train Blues
TTITLE23=Burnin' The Candle At Both Ends
EXTD=YEAR: 2001
EXTT0=
EXTT1=
EXTT2=
EXTT3=
EXTT4=
EXTT5=
EXTT6=
EXTT7=
EXTT8=
EXTT9=
EXTT10=
EXTT11=
EXTT12=
EXTT13=
EXTT14=
EXTT15=
EXTT16=
EXTT17=
EXTT18=
EXTT19=
EXTT20=
EXTT21=
EXTT22=
EXTT23=
PLAYORDER=
